<svg id="レイヤー_1" data-name="レイヤー 1" xmlns="http://www.w3.org/2000/svg" viewBox="0 0 2552 2552"><path d="M1363.75,1887l-83.35,83.33-83.48-83.59c1.29-1.34,4-4.22,6.75-7q170.73-170.76,341.49-341.5c2.12-2.12,4.26-4.23,6.36-6.37,12.66-12.94,12.49-26.71-.87-39.12q-44.69-41.51-89.6-82.77-68.7-63.4-137.38-126.83c-5.49-5.07-11.13-9.41-19.15-9.54-6.67-.11-12.49,1.68-17.39,6.2-2.45,2.26-4.76,4.67-7.12,7q-158.38,158.39-316.72,316.79c-2.58,2.58-4.68,5.64-7.44,9l-8.86-8.45,135.93-135.93-356-356c2.93-1.06,4.62-1.88,6.41-2.3,98.92-23,191.63-60.51,276-117.53a566.87,566.87,0,0,0,84.53-70.08q76.89-77.24,154.1-154.17c1.88-1.88,3.82-3.72,5.63-5.67,10-10.85,10.33-24.06.19-34.93-8.64-9.26-17.81-18-26.78-27-10.37-10.34-20.79-20.64-32.25-32l83.4-83.42,86,86.06c-2.29,1.66-5.91,3.61-8.7,6.39q-171.91,171.72-343.68,343.57c-1.88,1.88-3.81,3.73-5.64,5.66-11.35,12-11.28,25,.19,37.17,1.37,1.45,2.82,2.84,4.23,4.25,70.94,70.94,142.12,141.64,212.63,213,16.3,16.49,31,16,46.79.15q162.83-163.82,326.45-326.85c2.58-2.58,4.81-5.52,7.68-8.85l8.94,8-136.06,136.06c118.56,118.56,236.71,236.72,355.82,355.82-4.46,1.14-7.31,1.89-10.18,2.6-96.88,23.74-188.17,60.6-271.44,116.11a552.84,552.84,0,0,0-84.89,69.64q-77.36,77.53-154.87,154.91c-1.65,1.65-3.34,3.26-4.94,5-11.4,12-11.58,25.25,0,37.12,14.43,14.79,29.13,29.32,43.81,43.86C1354.87,1879.21,1359.69,1883.31,1363.75,1887Z"/><path d="M1279.6,423.62c10.45,40.94,35.81,66.25,76.78,76.64-41.15,10.44-66.55,35.91-76.7,79.49-10.25-43.65-35.63-69.3-79.48-79.38C1243.52,490.06,1269.39,464.89,1279.6,423.62Z"/><path d="M1200,2057.1c43.74-10.29,69.35-35.56,79.72-77.12,4.68,19.26,13.1,36.27,27.08,50.2s31.22,22.31,52.92,26.73c-43.63,10-69.65,35.3-80.07,77.08C1269.24,2092.45,1243.55,2066.93,1200,2057.1Z"/></svg>